<svg xmlns="http://www.w3.org/2000/svg" viewBox="0 0 800 400" shape-rendering="crispEdges"><rect width="800" height="400" fill="#1a1a2e"/><rect x="240" y="80" width="8" height="8" fill="#0f0f1e"/><rect x="240" y="88" width="8" height="8" fill="#0f0f1e"/><rect x="240" y="96" width="8" height="8" fill="#0f0f1e"/><rect x="240" y="104" width="8" height="8" fill="#0f0f1e"/><rect x="240" y="112" width="8" height="8" fill="#0f0f1e"/><rect x="240" y="120" width="8" height="8" fill="#0f0f1e"/><rect x="240" y="128" width="8" height="8" fill="#0f0f1e"/><rect x="240" y="136" width="8" height="8" fill="#0f0f1e"/><rect x="248" y="80" width="8" height="8" fill="#0f0f1e"/><rect x="248" y="88" width="8" height="8" fill="#ffd60a"/><rect x="248" y="96" width="8" height="8" fill="#ffd60a"/><rect x="248" y="104" width="8" height="8" fill="#ffd60a"/><rect x="248" y="112" width="8" height="8" fill="#ffd60a"/><rect x="248" y="120" width="8" height="8" fill="#ffd60a"/><rect x="248" y="128" width="8" height="8" fill="#ffd60a"/><rect x="248" y="136" width="8" height="8" fill="#0f0f1e"/><rect x="256" y="80" width="8" height="8" fill="#0f0f1e"/><rect x="256" y="88" width="8" height="8" fill="#ffd60a"/><rect x="256" y="96" width="8" height="8" fill="#ffd60a"/><rect x="256" y="104" width="8" height="8" fill="#ffd60a"/><rect x="256" y="112" width="8" height="8" fill="#ffd60a"/><rect x="256" y="120" width="8" height="8" fill="#ffd60a"/><rect x="256" y="128" width="8" height="8" fill="#ffd60a"/><rect x="256" y="136" width="8" height="8" fill="#0f0f1e"/><rect x="264" y="80" width="8" height="8" fill="#0f0f1e"/><rect x="264" y="88" width="8" height="8" fill="#ffd60a"/><rect x="264" y="96" width="8" height="8" fill="#ffd60a"/><rect x="264" y="104" width="8" height="8" fill="#ffd60a"/><rect x="264" y="112" width="8" height="8" fill="#ffd60a"/><rect x="264" y="120" width="8" height="8" fill="#ffd60a"/><rect x="264" y="128" width="8" height="8" fill="#ffd60a"/><rect x="264" y="136" width="8" height="8" fill="#0f0f1e"/><rect x="272" y="80" width="8" height="8" fill="#0f0f1e"/><rect x="272" y="88" width="8" height="8" fill="#ffd60a"/><rect x="272" y="96" width="8" height="8" fill="#ffd60a"/><rect x="272" y="104" width="8" height="8" fill="#ffd60a"/><rect x="272" y="112" width="8" height="8" fill="#ffd60a"/><rect x="272" y="120" width="8" height="8" fill="#ffd60a"/><rect x="272" y="128" width="8" height="8" fill="#ffd60a"/><rect x="272" y="136" width="8" height="8" fill="#0f0f1e"/><rect x="280" y="80" width="8" height="8" fill="#0f0f1e"/><rect x="280" y="88" width="8" height="8" fill="#ffd60a"/><rect x="280" y="96" width="8" height="8" fill="#ffd60a"/><rect x="280" y="104" width="8" height="8" fill="#ffd60a"/><rect x="280" y="112" width="8" height="8" fill="#ffd60a"/><rect x="280" y="120" width="8" height="8" fill="#ffd60a"/><rect x="280" y="128" width="8" height="8" fill="#ffd60a"/><rect x="280" y="136" width="8" height="8" fill="#0f0f1e"/><rect x="288" y="80" width="8" height="8" fill="#0f0f1e"/><rect x="288" y="88" width="8" height="8" fill="#ffd60a"/><rect x="288" y="96" width="8" height="8" fill="#ffd60a"/><rect x="288" y="104" width="8" height="8" fill="#ffd60a"/><rect x="288" y="112" width="8" height="8" fill="#ffd60a"/><rect x="288" y="120" width="8" height="8" fill="#ffd60a"/><rect x="288" y="128" width="8" height="8" fill="#ffd60a"/><rect x="288" y="136" width="8" height="8" fill="#0f0f1e"/><rect x="296" y="80" width="8" height="8" fill="#0f0f1e"/><rect x="296" y="88" width="8" height="8" fill="#ffd60a"/><rect x="296" y="96" width="8" height="8" fill="#ffd60a"/><rect x="296" y="104" width="8" height="8" fill="#ffd60a"/><rect x="296" y="112" width="8" height="8" fill="#ffd60a"/><rect x="296" y="120" width="8" height="8" fill="#ffd60a"/><rect x="296" y="128" width="8" height="8" fill="#ffd60a"/><rect x="296" y="136" width="8" height="8" fill="#0f0f1e"/><rect x="304" y="80" width="8" height="8" fill="#0f0f1e"/><rect x="304" y="88" width="8" height="8" fill="#ffd60a"/><rect x="304" y="96" width="8" height="8" fill="#ffd60a"/><rect x="304" y="104" width="8" height="8" fill="#ffd60a"/><rect x="304" y="112" width="8" height="8" fill="#ffd60a"/><rect x="304" y="120" width="8" height="8" fill="#ffd60a"/><rect x="304" y="128" width="8" height="8" fill="#ffd60a"/><rect x="304" y="136" width="8" height="8" fill="#0f0f1e"/><rect x="312" y="80" width="8" height="8" fill="#0f0f1e"/><rect x="312" y="88" width="8" height="8" fill="#ffd60a"/><rect x="312" y="96" width="8" height="8" fill="#ffd60a"/><rect x="312" y="104" width="8" height="8" fill="#ffd60a"/><rect x="312" y="112" width="8" height="8" fill="#ffd60a"/><rect x="312" y="120" width="8" height="8" fill="#ffd60a"/><rect x="312" y="128" width="8" height="8" fill="#ffd60a"/><rect x="312" y="136" width="8" height="8" fill="#0f0f1e"/><rect x="320" y="80" width="8" height="8" fill="#0f0f1e"/><rect x="320" y="88" width="8" height="8" fill="#ffd60a"/><rect x="320" y="96" width="8" height="8" fill="#ffd60a"/><rect x="320" y="104" width="8" height="8" fill="#ffd60a"/><rect x="320" y="112" width="8" height="8" fill="#ffd60a"/><rect x="320" y="120" width="8" height="8" fill="#ffd60a"/><rect x="320" y="128" width="8" height="8" fill="#ffd60a"/><rect x="320" y="136" width="8" height="8" fill="#0f0f1e"/><rect x="328" y="80" width="8" height="8" fill="#0f0f1e"/><rect x="328" y="88" width="8" height="8" fill="#0f0f1e"/><rect x="328" y="96" width="8" height="8" fill="#0f0f1e"/><rect x="328" y="104" width="8" height="8" fill="#0f0f1e"/><rect x="328" y="112" width="8" height="8" fill="#0f0f1e"/><rect x="328" y="120" width="8" height="8" fill="#0f0f1e"/><rect x="328" y="128" width="8" height="8" fill="#0f0f1e"/><rect x="328" y="136" width="8" height="8" fill="#0f0f1e"/><rect x="272" y="144" width="8" height="8" fill="#8d99ae"/><rect x="272" y="152" width="8" height="8" fill="#8d99ae"/><rect x="280" y="144" width="8" height="8" fill="#8d99ae"/><rect x="280" y="152" width="8" height="8" fill="#8d99ae"/><rect x="288" y="144" width="8" height="8" fill="#8d99ae"/><rect x="288" y="152" width="8" height="8" fill="#8d99ae"/><rect x="296" y="144" width="8" height="8" fill="#8d99ae"/><rect x="296" y="152" width="8" height="8" fill="#8d99ae"/><rect x="256" y="160" width="8" height="8" fill="#8d99ae"/><rect x="264" y="160" width="8" height="8" fill="#8d99ae"/><rect x="272" y="160" width="8" height="8" fill="#8d99ae"/><rect x="280" y="160" width="8" height="8" fill="#8d99ae"/><rect x="288" y="160" width="8" height="8" fill="#8d99ae"/><rect x="296" y="160" width="8" height="8" fill="#8d99ae"/><rect x="304" y="160" width="8" height="8" fill="#8d99ae"/><rect x="312" y="160" width="8" height="8" fill="#8d99ae"/><rect x="200" y="240" width="8" height="8" fill="#0f0f1e"/><rect x="200" y="248" width="8" height="8" fill="#0f0f1e"/><rect x="200" y="256" width="8" height="8" fill="#0f0f1e"/><rect x="200" y="264" width="8" height="8" fill="#0f0f1e"/><rect x="200" y="272" width="8" height="8" fill="#0f0f1e"/><rect x="208" y="240" width="8" height="8" fill="#0f0f1e"/><rect x="208" y="248" width="8" height="8" fill="#ffd60a"/><rect x="208" y="256" width="8" height="8" fill="#ffd60a"/><rect x="208" y="264" width="8" height="8" fill="#ffd60a"/><rect x="208" y="272" width="8" height="8" fill="#0f0f1e"/><rect x="216" y="240" width="8" height="8" fill="#0f0f1e"/><rect x="216" y="248" width="8" height="8" fill="#ffd60a"/><rect x="216" y="256" width="8" height="8" fill="#ffd60a"/><rect x="216" y="264" width="8" height="8" fill="#ffd60a"/><rect x="216" y="272" width="8" height="8" fill="#0f0f1e"/><rect x="224" y="240" width="8" height="8" fill="#0f0f1e"/><rect x="224" y="248" width="8" height="8" fill="#ffd60a"/><rect x="224" y="256" width="8" height="8" fill="#ffd60a"/><rect x="224" y="264" width="8" height="8" fill="#ffd60a"/><rect x="224" y="272" width="8" height="8" fill="#0f0f1e"/><rect x="232" y="240" width="8" height="8" fill="#0f0f1e"/><rect x="232" y="248" width="8" height="8" fill="#ffd60a"/><rect x="232" y="256" width="8" height="8" fill="#ffd60a"/><rect x="232" y="264" width="8" height="8" fill="#ffd60a"/><rect x="232" y="272" width="8" height="8" fill="#0f0f1e"/><rect x="240" y="240" width="8" height="8" fill="#0f0f1e"/><rect x="240" y="248" width="8" height="8" fill="#ffd60a"/><rect x="240" y="256" width="8" height="8" fill="#ffd60a"/><rect x="240" y="264" width="8" height="8" fill="#ffd60a"/><rect x="240" y="272" width="8" height="8" fill="#0f0f1e"/><rect x="248" y="240" width="8" height="8" fill="#0f0f1e"/><rect x="248" y="248" width="8" height="8" fill="#ffd60a"/><rect x="248" y="256" width="8" height="8" fill="#ffd60a"/><rect x="248" y="264" width="8" height="8" fill="#ffd60a"/><rect x="248" y="272" width="8" height="8" fill="#0f0f1e"/><rect x="256" y="240" width="8" height="8" fill="#0f0f1e"/><rect x="256" y="248" width="8" height="8" fill="#ffd60a"/><rect x="256" y="256" width="8" height="8" fill="#ffd60a"/><rect x="256" y="264" width="8" height="8" fill="#ffd60a"/><rect x="256" y="272" width="8" height="8" fill="#0f0f1e"/><rect x="264" y="240" width="8" height="8" fill="#0f0f1e"/><rect x="264" y="248" width="8" height="8" fill="#ffd60a"/><rect x="264" y="256" width="8" height="8" fill="#ffd60a"/><rect x="264" y="264" width="8" height="8" fill="#ffd60a"/><rect x="264" y="272" width="8" height="8" fill="#0f0f1e"/><rect x="272" y="240" width="8" height="8" fill="#0f0f1e"/><rect x="272" y="248" width="8" height="8" fill="#ffd60a"/><rect x="272" y="256" width="8" height="8" fill="#ffd60a"/><rect x="272" y="264" width="8" height="8" fill="#ffd60a"/><rect x="272" y="272" width="8" height="8" fill="#0f0f1e"/><rect x="280" y="240" width="8" height="8" fill="#0f0f1e"/><rect x="280" y="248" width="8" height="8" fill="#ffd60a"/><rect x="280" y="256" width="8" height="8" fill="#ffd60a"/><rect x="280" y="264" width="8" height="8" fill="#ffd60a"/><rect x="280" y="272" width="8" height="8" fill="#0f0f1e"/><rect x="288" y="240" width="8" height="8" fill="#0f0f1e"/><rect x="288" y="248" width="8" height="8" fill="#ffd60a"/><rect x="288" y="256" width="8" height="8" fill="#ffd60a"/><rect x="288" y="264" width="8" height="8" fill="#ffd60a"/><rect x="288" y="272" width="8" height="8" fill="#0f0f1e"/><rect x="296" y="240" width="8" height="8" fill="#0f0f1e"/><rect x="296" y="248" width="8" height="8" fill="#ffd60a"/><rect x="296" y="256" width="8" height="8" fill="#ffd60a"/><rect x="296" y="264" width="8" height="8" fill="#ffd60a"/><rect x="296" y="272" width="8" height="8" fill="#0f0f1e"/><rect x="304" y="240" width="8" height="8" fill="#0f0f1e"/><rect x="304" y="248" width="8" height="8" fill="#ffd60a"/><rect x="304" y="256" width="8" height="8" fill="#ffd60a"/><rect x="304" y="264" width="8" height="8" fill="#ffd60a"/><rect x="304" y="272" width="8" height="8" fill="#0f0f1e"/><rect x="312" y="240" width="8" height="8" fill="#0f0f1e"/><rect x="312" y="248" width="8" height="8" fill="#ffd60a"/><rect x="312" y="256" width="8" height="8" fill="#ffd60a"/><rect x="312" y="264" width="8" height="8" fill="#ffd60a"/><rect x="312" y="272" width="8" height="8" fill="#0f0f1e"/><rect x="320" y="240" width="8" height="8" fill="#0f0f1e"/><rect x="320" y="248" width="8" height="8" fill="#ffd60a"/><rect x="320" y="256" width="8" height="8" fill="#ffd60a"/><rect x="320" y="264" width="8" height="8" fill="#ffd60a"/><rect x="320" y="272" width="8" height="8" fill="#0f0f1e"/><rect x="328" y="240" width="8" height="8" fill="#0f0f1e"/><rect x="328" y="248" width="8" height="8" fill="#ffd60a"/><rect x="328" y="256" width="8" height="8" fill="#ffd60a"/><rect x="328" y="264" width="8" height="8" fill="#ffd60a"/><rect x="328" y="272" width="8" height="8" fill="#0f0f1e"/><rect x="336" y="240" width="8" height="8" fill="#0f0f1e"/><rect x="336" y="248" width="8" height="8" fill="#ffd60a"/><rect x="336" y="256" width="8" height="8" fill="#ffd60a"/><rect x="336" y="264" width="8" height="8" fill="#ffd60a"/><rect x="336" y="272" width="8" height="8" fill="#0f0f1e"/><rect x="344" y="240" width="8" height="8" fill="#0f0f1e"/><rect x="344" y="248" width="8" height="8" fill="#ffd60a"/><rect x="344" y="256" width="8" height="8" fill="#ffd60a"/><rect x="344" y="264" width="8" height="8" fill="#ffd60a"/><rect x="344" y="272" width="8" height="8" fill="#0f0f1e"/><rect x="352" y="240" width="8" height="8" fill="#0f0f1e"/><rect x="352" y="248" width="8" height="8" fill="#ffd60a"/><rect x="352" y="256" width="8" height="8" fill="#ffd60a"/><rect x="352" y="264" width="8" height="8" fill="#ffd60a"/><rect x="352" y="272" width="8" height="8" fill="#0f0f1e"/><rect x="360" y="240" width="8" height="8" fill="#0f0f1e"/><rect x="360" y="248" width="8" height="8" fill="#ffd60a"/><rect x="360" y="256" width="8" height="8" fill="#ffd60a"/><rect x="360" y="264" width="8" height="8" fill="#ffd60a"/><rect x="360" y="272" width="8" height="8" fill="#0f0f1e"/><rect x="368" y="240" width="8" height="8" fill="#0f0f1e"/><rect x="368" y="248" width="8" height="8" fill="#ffd60a"/><rect x="368" y="256" width="8" height="8" fill="#ffd60a"/><rect x="368" y="264" width="8" height="8" fill="#ffd60a"/><rect x="368" y="272" width="8" height="8" fill="#0f0f1e"/><rect x="376" y="240" width="8" height="8" fill="#0f0f1e"/><rect x="376" y="248" width="8" height="8" fill="#ffd60a"/><rect x="376" y="256" width="8" height="8" fill="#ffd60a"/><rect x="376" y="264" width="8" height="8" fill="#ffd60a"/><rect x="376" y="272" width="8" height="8" fill="#0f0f1e"/><rect x="384" y="240" width="8" height="8" fill="#0f0f1e"/><rect x="384" y="248" width="8" height="8" fill="#ffd60a"/><rect x="384" y="256" width="8" height="8" fill="#ffd60a"/><rect x="384" y="264" width="8" height="8" fill="#ffd60a"/><rect x="384" y="272" width="8" height="8" fill="#0f0f1e"/><rect x="392" y="240" width="8" height="8" fill="#0f0f1e"/><rect x="392" y="248" width="8" height="8" fill="#ffd60a"/><rect x="392" y="256" width="8" height="8" fill="#ffd60a"/><rect x="392" y="264" width="8" height="8" fill="#ffd60a"/><rect x="392" y="272" width="8" height="8" fill="#0f0f1e"/><rect x="400" y="240" width="8" height="8" fill="#0f0f1e"/><rect x="400" y="248" width="8" height="8" fill="#ffd60a"/><rect x="400" y="256" width="8" height="8" fill="#ffd60a"/><rect x="400" y="264" width="8" height="8" fill="#ffd60a"/><rect x="400" y="272" width="8" height="8" fill="#0f0f1e"/><rect x="408" y="240" width="8" height="8" fill="#0f0f1e"/><rect x="408" y="248" width="8" height="8" fill="#ffd60a"/><rect x="408" y="256" width="8" height="8" fill="#ffd60a"/><rect x="408" y="264" width="8" height="8" fill="#ffd60a"/><rect x="408" y="272" width="8" height="8" fill="#0f0f1e"/><rect x="416" y="240" width="8" height="8" fill="#0f0f1e"/><rect x="416" y="248" width="8" height="8" fill="#ffd60a"/><rect x="416" y="256" width="8" height="8" fill="#ffd60a"/><rect x="416" y="264" width="8" height="8" fill="#ffd60a"/><rect x="416" y="272" width="8" height="8" fill="#0f0f1e"/><rect x="424" y="240" width="8" height="8" fill="#0f0f1e"/><rect x="424" y="248" width="8" height="8" fill="#ffd60a"/><rect x="424" y="256" width="8" height="8" fill="#ffd60a"/><rect x="424" y="264" width="8" height="8" fill="#ffd60a"/><rect x="424" y="272" width="8" height="8" fill="#0f0f1e"/><rect x="432" y="240" width="8" height="8" fill="#0f0f1e"/><rect x="432" y="248" width="8" height="8" fill="#0f0f1e"/><rect x="432" y="256" width="8" height="8" fill="#0f0f1e"/><rect x="432" y="264" width="8" height="8" fill="#0f0f1e"/><rect x="432" y="272" width="8" height="8" fill="#0f0f1e"/><rect x="0" y="0" width="8" height="8" fill="#0f0f1e"/><rect x="0" y="392" width="8" height="8" fill="#0f0f1e"/><rect x="8" y="0" width="8" height="8" fill="#0f0f1e"/><rect x="8" y="392" width="8" height="8" fill="#0f0f1e"/><rect x="16" y="0" width="8" height="8" fill="#0f0f1e"/><rect x="16" y="392" width="8" height="8" fill="#0f0f1e"/><rect x="24" y="0" width="8" height="8" fill="#0f0f1e"/><rect x="24" y="392" width="8" height="8" fill="#0f0f1e"/><rect x="32" y="0" width="8" height="8" fill="#0f0f1e"/><rect x="32" y="392" width="8" height="8" fill="#0f0f1e"/><rect x="40" y="0" width="8" height="8" fill="#0f0f1e"/><rect x="40" y="392" width="8" height="8" fill="#0f0f1e"/><rect x="48" y="0" width="8" height="8" fill="#0f0f1e"/><rect x="48" y="392" width="8" height="8" fill="#0f0f1e"/><rect x="56" y="0" width="8" height="8" fill="#0f0f1e"/><rect x="56" y="392" width="8" height="8" fill="#0f0f1e"/><rect x="64" y="0" width="8" height="8" fill="#0f0f1e"/><rect x="64" y="392" width="8" height="8" fill="#0f0f1e"/><rect x="72" y="0" width="8" height="8" fill="#0f0f1e"/><rect x="72" y="392" width="8" height="8" fill="#0f0f1e"/><rect x="80" y="0" width="8" height="8" fill="#0f0f1e"/><rect x="80" y="392" width="8" height="8" fill="#0f0f1e"/><rect x="88" y="0" width="8" height="8" fill="#0f0f1e"/><rect x="88" y="392" width="8" height="8" fill="#0f0f1e"/><rect x="96" y="0" width="8" height="8" fill="#0f0f1e"/><rect x="96" y="392" width="8" height="8" fill="#0f0f1e"/><rect x="104" y="0" width="8" height="8" fill="#0f0f1e"/><rect x="104" y="392" width="8" height="8" fill="#0f0f1e"/><rect x="112" y="0" width="8" height="8" fill="#0f0f1e"/><rect x="112" y="392" width="8" height="8" fill="#0f0f1e"/><rect x="120" y="0" width="8" height="8" fill="#0f0f1e"/><rect x="120" y="392" width="8" height="8" fill="#0f0f1e"/><rect x="128" y="0" width="8" height="8" fill="#0f0f1e"/><rect x="128" y="392" width="8" height="8" fill="#0f0f1e"/><rect x="136" y="0" width="8" height="8" fill="#0f0f1e"/><rect x="136" y="392" width="8" height="8" fill="#0f0f1e"/><rect x="144" y="0" width="8" height="8" fill="#0f0f1e"/><rect x="144" y="392" width="8" height="8" fill="#0f0f1e"/><rect x="152" y="0" width="8" height="8" fill="#0f0f1e"/><rect x="152" y="392" width="8" height="8" fill="#0f0f1e"/><rect x="160" y="0" width="8" height="8" fill="#0f0f1e"/><rect x="160" y="392" width="8" height="8" fill="#0f0f1e"/><rect x="168" y="0" width="8" height="8" fill="#0f0f1e"/><rect x="168" y="392" width="8" height="8" fill="#0f0f1e"/><rect x="176" y="0" width="8" height="8" fill="#0f0f1e"/><rect x="176" y="392" width="8" height="8" fill="#0f0f1e"/><rect x="184" y="0" width="8" height="8" fill="#0f0f1e"/><rect x="184" y="392" width="8" height="8" fill="#0f0f1e"/><rect x="192" y="0" width="8" height="8" fill="#0f0f1e"/><rect x="192" y="392" width="8" height="8" fill="#0f0f1e"/><rect x="200" y="0" width="8" height="8" fill="#0f0f1e"/><rect x="200" y="392" width="8" height="8" fill="#0f0f1e"/><rect x="208" y="0" width="8" height="8" fill="#0f0f1e"/><rect x="208" y="392" width="8" height="8" fill="#0f0f1e"/><rect x="216" y="0" width="8" height="8" fill="#0f0f1e"/><rect x="216" y="392" width="8" height="8" fill="#0f0f1e"/><rect x="224" y="0" width="8" height="8" fill="#0f0f1e"/><rect x="224" y="392" width="8" height="8" fill="#0f0f1e"/><rect x="232" y="0" width="8" height="8" fill="#0f0f1e"/><rect x="232" y="392" width="8" height="8" fill="#0f0f1e"/><rect x="240" y="0" width="8" height="8" fill="#0f0f1e"/><rect x="240" y="392" width="8" height="8" fill="#0f0f1e"/><rect x="248" y="0" width="8" height="8" fill="#0f0f1e"/><rect x="248" y="392" width="8" height="8" fill="#0f0f1e"/><rect x="256" y="0" width="8" height="8" fill="#0f0f1e"/><rect x="256" y="392" width="8" height="8" fill="#0f0f1e"/><rect x="264" y="0" width="8" height="8" fill="#0f0f1e"/><rect x="264" y="392" width="8" height="8" fill="#0f0f1e"/><rect x="272" y="0" width="8" height="8" fill="#0f0f1e"/><rect x="272" y="392" width="8" height="8" fill="#0f0f1e"/><rect x="280" y="0" width="8" height="8" fill="#0f0f1e"/><rect x="280" y="392" width="8" height="8" fill="#0f0f1e"/><rect x="288" y="0" width="8" height="8" fill="#0f0f1e"/><rect x="288" y="392" width="8" height="8" fill="#0f0f1e"/><rect x="296" y="0" width="8" height="8" fill="#0f0f1e"/><rect x="296" y="392" width="8" height="8" fill="#0f0f1e"/><rect x="304" y="0" width="8" height="8" fill="#0f0f1e"/><rect x="304" y="392" width="8" height="8" fill="#0f0f1e"/><rect x="312" y="0" width="8" height="8" fill="#0f0f1e"/><rect x="312" y="392" width="8" height="8" fill="#0f0f1e"/><rect x="320" y="0" width="8" height="8" fill="#0f0f1e"/><rect x="320" y="392" width="8" height="8" fill="#0f0f1e"/><rect x="328" y="0" width="8" height="8" fill="#0f0f1e"/><rect x="328" y="392" width="8" height="8" fill="#0f0f1e"/><rect x="336" y="0" width="8" height="8" fill="#0f0f1e"/><rect x="336" y="392" width="8" height="8" fill="#0f0f1e"/><rect x="344" y="0" width="8" height="8" fill="#0f0f1e"/><rect x="344" y="392" width="8" height="8" fill="#0f0f1e"/><rect x="352" y="0" width="8" height="8" fill="#0f0f1e"/><rect x="352" y="392" width="8" height="8" fill="#0f0f1e"/><rect x="360" y="0" width="8" height="8" fill="#0f0f1e"/><rect x="360" y="392" width="8" height="8" fill="#0f0f1e"/><rect x="368" y="0" width="8" height="8" fill="#0f0f1e"/><rect x="368" y="392" width="8" height="8" fill="#0f0f1e"/><rect x="376" y="0" width="8" height="8" fill="#0f0f1e"/><rect x="376" y="392" width="8" height="8" fill="#0f0f1e"/><rect x="384" y="0" width="8" height="8" fill="#0f0f1e"/><rect x="384" y="392" width="8" height="8" fill="#0f0f1e"/><rect x="392" y="0" width="8" height="8" fill="#0f0f1e"/><rect x="392" y="392" width="8" height="8" fill="#0f0f1e"/><rect x="400" y="0" width="8" height="8" fill="#0f0f1e"/><rect x="400" y="392" width="8" height="8" fill="#0f0f1e"/><rect x="408" y="0" width="8" height="8" fill="#0f0f1e"/><rect x="408" y="392" width="8" height="8" fill="#0f0f1e"/><rect x="416" y="0" width="8" height="8" fill="#0f0f1e"/><rect x="416" y="392" width="8" height="8" fill="#0f0f1e"/><rect x="424" y="0" width="8" height="8" fill="#0f0f1e"/><rect x="424" y="392" width="8" height="8" fill="#0f0f1e"/><rect x="432" y="0" width="8" height="8" fill="#0f0f1e"/><rect x="432" y="392" width="8" height="8" fill="#0f0f1e"/><rect x="440" y="0" width="8" height="8" fill="#0f0f1e"/><rect x="440" y="392" width="8" height="8" fill="#0f0f1e"/><rect x="448" y="0" width="8" height="8" fill="#0f0f1e"/><rect x="448" y="392" width="8" height="8" fill="#0f0f1e"/><rect x="456" y="0" width="8" height="8" fill="#0f0f1e"/><rect x="456" y="392" width="8" height="8" fill="#0f0f1e"/><rect x="464" y="0" width="8" height="8" fill="#0f0f1e"/><rect x="464" y="392" width="8" height="8" fill="#0f0f1e"/><rect x="472" y="0" width="8" height="8" fill="#0f0f1e"/><rect x="472" y="392" width="8" height="8" fill="#0f0f1e"/><rect x="480" y="0" width="8" height="8" fill="#0f0f1e"/><rect x="480" y="392" width="8" height="8" fill="#0f0f1e"/><rect x="488" y="0" width="8" height="8" fill="#0f0f1e"/><rect x="488" y="392" width="8" height="8" fill="#0f0f1e"/><rect x="496" y="0" width="8" height="8" fill="#0f0f1e"/><rect x="496" y="392" width="8" height="8" fill="#0f0f1e"/><rect x="504" y="0" width="8" height="8" fill="#0f0f1e"/><rect x="504" y="392" width="8" height="8" fill="#0f0f1e"/><rect x="512" y="0" width="8" height="8" fill="#0f0f1e"/><rect x="512" y="392" width="8" height="8" fill="#0f0f1e"/><rect x="520" y="0" width="8" height="8" fill="#0f0f1e"/><rect x="520" y="392" width="8" height="8" fill="#0f0f1e"/><rect x="528" y="0" width="8" height="8" fill="#0f0f1e"/><rect x="528" y="392" width="8" height="8" fill="#0f0f1e"/><rect x="536" y="0" width="8" height="8" fill="#0f0f1e"/><rect x="536" y="392" width="8" height="8" fill="#0f0f1e"/><rect x="544" y="0" width="8" height="8" fill="#0f0f1e"/><rect x="544" y="392" width="8" height="8" fill="#0f0f1e"/><rect x="552" y="0" width="8" height="8" fill="#0f0f1e"/><rect x="552" y="392" width="8" height="8" fill="#0f0f1e"/><rect x="560" y="0" width="8" height="8" fill="#0f0f1e"/><rect x="560" y="392" width="8" height="8" fill="#0f0f1e"/><rect x="568" y="0" width="8" height="8" fill="#0f0f1e"/><rect x="568" y="392" width="8" height="8" fill="#0f0f1e"/><rect x="576" y="0" width="8" height="8" fill="#0f0f1e"/><rect x="576" y="392" width="8" height="8" fill="#0f0f1e"/><rect x="584" y="0" width="8" height="8" fill="#0f0f1e"/><rect x="584" y="392" width="8" height="8" fill="#0f0f1e"/><rect x="592" y="0" width="8" height="8" fill="#0f0f1e"/><rect x="592" y="392" width="8" height="8" fill="#0f0f1e"/><rect x="600" y="0" width="8" height="8" fill="#0f0f1e"/><rect x="600" y="392" width="8" height="8" fill="#0f0f1e"/><rect x="608" y="0" width="8" height="8" fill="#0f0f1e"/><rect x="608" y="392" width="8" height="8" fill="#0f0f1e"/><rect x="616" y="0" width="8" height="8" fill="#0f0f1e"/><rect x="616" y="392" width="8" height="8" fill="#0f0f1e"/><rect x="624" y="0" width="8" height="8" fill="#0f0f1e"/><rect x="624" y="392" width="8" height="8" fill="#0f0f1e"/><rect x="632" y="0" width="8" height="8" fill="#0f0f1e"/><rect x="632" y="392" width="8" height="8" fill="#0f0f1e"/><rect x="640" y="0" width="8" height="8" fill="#0f0f1e"/><rect x="640" y="392" width="8" height="8" fill="#0f0f1e"/><rect x="648" y="0" width="8" height="8" fill="#0f0f1e"/><rect x="648" y="392" width="8" height="8" fill="#0f0f1e"/><rect x="656" y="0" width="8" height="8" fill="#0f0f1e"/><rect x="656" y="392" width="8" height="8" fill="#0f0f1e"/><rect x="664" y="0" width="8" height="8" fill="#0f0f1e"/><rect x="664" y="392" width="8" height="8" fill="#0f0f1e"/><rect x="672" y="0" width="8" height="8" fill="#0f0f1e"/><rect x="672" y="392" width="8" height="8" fill="#0f0f1e"/><rect x="680" y="0" width="8" height="8" fill="#0f0f1e"/><rect x="680" y="392" width="8" height="8" fill="#0f0f1e"/><rect x="688" y="0" width="8" height="8" fill="#0f0f1e"/><rect x="688" y="392" width="8" height="8" fill="#0f0f1e"/><rect x="696" y="0" width="8" height="8" fill="#0f0f1e"/><rect x="696" y="392" width="8" height="8" fill="#0f0f1e"/><rect x="704" y="0" width="8" height="8" fill="#0f0f1e"/><rect x="704" y="392" width="8" height="8" fill="#0f0f1e"/><rect x="712" y="0" width="8" height="8" fill="#0f0f1e"/><rect x="712" y="392" width="8" height="8" fill="#0f0f1e"/><rect x="720" y="0" width="8" height="8" fill="#0f0f1e"/><rect x="720" y="392" width="8" height="8" fill="#0f0f1e"/><rect x="728" y="0" width="8" height="8" fill="#0f0f1e"/><rect x="728" y="392" width="8" height="8" fill="#0f0f1e"/><rect x="736" y="0" width="8" height="8" fill="#0f0f1e"/><rect x="736" y="392" width="8" height="8" fill="#0f0f1e"/><rect x="744" y="0" width="8" height="8" fill="#0f0f1e"/><rect x="744" y="392" width="8" height="8" fill="#0f0f1e"/><rect x="752" y="0" width="8" height="8" fill="#0f0f1e"/><rect x="752" y="392" width="8" height="8" fill="#0f0f1e"/><rect x="760" y="0" width="8" height="8" fill="#0f0f1e"/><rect x="760" y="392" width="8" height="8" fill="#0f0f1e"/><rect x="768" y="0" width="8" height="8" fill="#0f0f1e"/><rect x="768" y="392" width="8" height="8" fill="#0f0f1e"/><rect x="776" y="0" width="8" height="8" fill="#0f0f1e"/><rect x="776" y="392" width="8" height="8" fill="#0f0f1e"/><rect x="784" y="0" width="8" height="8" fill="#0f0f1e"/><rect x="784" y="392" width="8" height="8" fill="#0f0f1e"/><rect x="792" y="0" width="8" height="8" fill="#0f0f1e"/><rect x="792" y="392" width="8" height="8" fill="#0f0f1e"/><rect x="0" y="0" width="8" height="8" fill="#0f0f1e"/><rect x="792" y="0" width="8" height="8" fill="#0f0f1e"/><rect x="0" y="8" width="8" height="8" fill="#0f0f1e"/><rect x="792" y="8" width="8" height="8" fill="#0f0f1e"/><rect x="0" y="16" width="8" height="8" fill="#0f0f1e"/><rect x="792" y="16" width="8" height="8" fill="#0f0f1e"/><rect x="0" y="24" width="8" height="8" fill="#0f0f1e"/><rect x="792" y="24" width="8" height="8" fill="#0f0f1e"/><rect x="0" y="32" width="8" height="8" fill="#0f0f1e"/><rect x="792" y="32" width="8" height="8" fill="#0f0f1e"/><rect x="0" y="40" width="8" height="8" fill="#0f0f1e"/><rect x="792" y="40" width="8" height="8" fill="#0f0f1e"/><rect x="0" y="48" width="8" height="8" fill="#0f0f1e"/><rect x="792" y="48" width="8" height="8" fill="#0f0f1e"/><rect x="0" y="56" width="8" height="8" fill="#0f0f1e"/><rect x="792" y="56" width="8" height="8" fill="#0f0f1e"/><rect x="0" y="64" width="8" height="8" fill="#0f0f1e"/><rect x="792" y="64" width="8" height="8" fill="#0f0f1e"/><rect x="0" y="72" width="8" height="8" fill="#0f0f1e"/><rect x="792" y="72" width="8" height="8" fill="#0f0f1e"/><rect x="0" y="80" width="8" height="8" fill="#0f0f1e"/><rect x="792" y="80" width="8" height="8" fill="#0f0f1e"/><rect x="0" y="88" width="8" height="8" fill="#0f0f1e"/><rect x="792" y="88" width="8" height="8" fill="#0f0f1e"/><rect x="0" y="96" width="8" height="8" fill="#0f0f1e"/><rect x="792" y="96" width="8" height="8" fill="#0f0f1e"/><rect x="0" y="104" width="8" height="8" fill="#0f0f1e"/><rect x="792" y="104" width="8" height="8" fill="#0f0f1e"/><rect x="0" y="112" width="8" height="8" fill="#0f0f1e"/><rect x="792" y="112" width="8" height="8" fill="#0f0f1e"/><rect x="0" y="120" width="8" height="8" fill="#0f0f1e"/><rect x="792" y="120" width="8" height="8" fill="#0f0f1e"/><rect x="0" y="128" width="8" height="8" fill="#0f0f1e"/><rect x="792" y="128" width="8" height="8" fill="#0f0f1e"/><rect x="0" y="136" width="8" height="8" fill="#0f0f1e"/><rect x="792" y="136" width="8" height="8" fill="#0f0f1e"/><rect x="0" y="144" width="8" height="8" fill="#0f0f1e"/><rect x="792" y="144" width="8" height="8" fill="#0f0f1e"/><rect x="0" y="152" width="8" height="8" fill="#0f0f1e"/><rect x="792" y="152" width="8" height="8" fill="#0f0f1e"/><rect x="0" y="160" width="8" height="8" fill="#0f0f1e"/><rect x="792" y="160" width="8" height="8" fill="#0f0f1e"/><rect x="0" y="168" width="8" height="8" fill="#0f0f1e"/><rect x="792" y="168" width="8" height="8" fill="#0f0f1e"/><rect x="0" y="176" width="8" height="8" fill="#0f0f1e"/><rect x="792" y="176" width="8" height="8" fill="#0f0f1e"/><rect x="0" y="184" width="8" height="8" fill="#0f0f1e"/><rect x="792" y="184" width="8" height="8" fill="#0f0f1e"/><rect x="0" y="192" width="8" height="8" fill="#0f0f1e"/><rect x="792" y="192" width="8" height="8" fill="#0f0f1e"/><rect x="0" y="200" width="8" height="8" fill="#0f0f1e"/><rect x="792" y="200" width="8" height="8" fill="#0f0f1e"/><rect x="0" y="208" width="8" height="8" fill="#0f0f1e"/><rect x="792" y="208" width="8" height="8" fill="#0f0f1e"/><rect x="0" y="216" width="8" height="8" fill="#0f0f1e"/><rect x="792" y="216" width="8" height="8" fill="#0f0f1e"/><rect x="0" y="224" width="8" height="8" fill="#0f0f1e"/><rect x="792" y="224" width="8" height="8" fill="#0f0f1e"/><rect x="0" y="232" width="8" height="8" fill="#0f0f1e"/><rect x="792" y="232" width="8" height="8" fill="#0f0f1e"/><rect x="0" y="240" width="8" height="8" fill="#0f0f1e"/><rect x="792" y="240" width="8" height="8" fill="#0f0f1e"/><rect x="0" y="248" width="8" height="8" fill="#0f0f1e"/><rect x="792" y="248" width="8" height="8" fill="#0f0f1e"/><rect x="0" y="256" width="8" height="8" fill="#0f0f1e"/><rect x="792" y="256" width="8" height="8" fill="#0f0f1e"/><rect x="0" y="264" width="8" height="8" fill="#0f0f1e"/><rect x="792" y="264" width="8" height="8" fill="#0f0f1e"/><rect x="0" y="272" width="8" height="8" fill="#0f0f1e"/><rect x="792" y="272" width="8" height="8" fill="#0f0f1e"/><rect x="0" y="280" width="8" height="8" fill="#0f0f1e"/><rect x="792" y="280" width="8" height="8" fill="#0f0f1e"/><rect x="0" y="288" width="8" height="8" fill="#0f0f1e"/><rect x="792" y="288" width="8" height="8" fill="#0f0f1e"/><rect x="0" y="296" width="8" height="8" fill="#0f0f1e"/><rect x="792" y="296" width="8" height="8" fill="#0f0f1e"/><rect x="0" y="304" width="8" height="8" fill="#0f0f1e"/><rect x="792" y="304" width="8" height="8" fill="#0f0f1e"/><rect x="0" y="312" width="8" height="8" fill="#0f0f1e"/><rect x="792" y="312" width="8" height="8" fill="#0f0f1e"/><rect x="0" y="320" width="8" height="8" fill="#0f0f1e"/><rect x="792" y="320" width="8" height="8" fill="#0f0f1e"/><rect x="0" y="328" width="8" height="8" fill="#0f0f1e"/><rect x="792" y="328" width="8" height="8" fill="#0f0f1e"/><rect x="0" y="336" width="8" height="8" fill="#0f0f1e"/><rect x="792" y="336" width="8" height="8" fill="#0f0f1e"/><rect x="0" y="344" width="8" height="8" fill="#0f0f1e"/><rect x="792" y="344" width="8" height="8" fill="#0f0f1e"/><rect x="0" y="352" width="8" height="8" fill="#0f0f1e"/><rect x="792" y="352" width="8" height="8" fill="#0f0f1e"/><rect x="0" y="360" width="8" height="8" fill="#0f0f1e"/><rect x="792" y="360" width="8" height="8" fill="#0f0f1e"/><rect x="0" y="368" width="8" height="8" fill="#0f0f1e"/><rect x="792" y="368" width="8" height="8" fill="#0f0f1e"/><rect x="0" y="376" width="8" height="8" fill="#0f0f1e"/><rect x="792" y="376" width="8" height="8" fill="#0f0f1e"/><rect x="0" y="384" width="8" height="8" fill="#0f0f1e"/><rect x="792" y="384" width="8" height="8" fill="#0f0f1e"/><rect x="0" y="392" width="8" height="8" fill="#0f0f1e"/><rect x="792" y="392" width="8" height="8" fill="#0f0f1e"/></svg>